REM DIRINDEX 1\2,1\3,1\4,1\5
REM DIRNAME cjc046,folder01,folder02,folder03,folder04
TITLE ""
FILE "132.mp3" MP3
  TRACK 01 AUDIO
    TITLE "0:"
    INDEX 01 00:00:00
  TRACK 02 AUDIO
    TITLE "2:cjc046_3390"
    INDEX 01 00:00:09
  TRACK 03 AUDIO
    TITLE "0:"
    INDEX 01 00:01:13
  TRACK 04 AUDIO
    TITLE "3:cjc046_3391"
    INDEX 01 00:01:34
  TRACK 05 AUDIO
    TITLE "0:"
    INDEX 01 00:03:29
  TRACK 06 AUDIO
    TITLE "4:cjc046_3392"
    INDEX 01 00:03:39
  TRACK 07 AUDIO
    TITLE "0:"
    INDEX 01 00:04:44
  TRACK 08 AUDIO
    TITLE "2:cjc046_3393"
    INDEX 01 00:05:54
  TRACK 09 AUDIO
    TITLE "0:"
    INDEX 01 00:06:49
  TRACK 10 AUDIO
    TITLE "3:cjc046_3394"
    INDEX 01 00:06:73
  TRACK 11 AUDIO
    TITLE "0:"
    INDEX 01 00:08:13
  TRACK 12 AUDIO
    TITLE "4:cjc046_3395"
    INDEX 01 00:08:32
  TRACK 13 AUDIO
    TITLE "0:"
    INDEX 01 00:09:26
  TRACK 14 AUDIO
    TITLE "2:cjc046_3396"
    INDEX 01 00:10:37
  TRACK 15 AUDIO
    TITLE "0:"
    INDEX 01 00:11:54
  TRACK 16 AUDIO
    TITLE "3:cjc046_3397"
    INDEX 01 00:11:74
  TRACK 17 AUDIO
    TITLE "0:"
    INDEX 01 00:13:20
  TRACK 18 AUDIO
    TITLE "4:cjc046_3398"
    INDEX 01 00:13:30
  TRACK 19 AUDIO
    TITLE "0:"
    INDEX 01 00:14:47
  TRACK 20 AUDIO
    TITLE "2:cjc046_3399"
    INDEX 01 00:15:60
  TRACK 21 AUDIO
    TITLE "0:"
    INDEX 01 00:17:02
  TRACK 22 AUDIO
    TITLE "3:cjc046_3400"
    INDEX 01 00:17:23
  TRACK 23 AUDIO
    TITLE "0:"
    INDEX 01 00:18:52
  TRACK 24 AUDIO
    TITLE "4:cjc046_3401"
    INDEX 01 00:18:72
  TRACK 25 AUDIO
    TITLE "0:"
    INDEX 01 00:20:14
  TRACK 26 AUDIO
    TITLE "2:cjc046_3402"
    INDEX 01 00:21:27
  TRACK 27 AUDIO
    TITLE "0:"
    INDEX 01 00:22:56
  TRACK 28 AUDIO
    TITLE "3:cjc046_3403"
    INDEX 01 00:23:03
  TRACK 29 AUDIO
    TITLE "0:"
    INDEX 01 00:24:53
  TRACK 30 AUDIO
    TITLE "4:cjc046_3404"
    INDEX 01 00:24:69
  TRACK 31 AUDIO
    TITLE "0:"
    INDEX 01 00:26:22
  TRACK 32 AUDIO
    TITLE "2:cjc046_3405"
    INDEX 01 00:27:34
  TRACK 33 AUDIO
    TITLE "0:"
    INDEX 01 00:28:41
  TRACK 34 AUDIO
    TITLE "3:cjc046_3406"
    INDEX 01 00:28:57
  TRACK 35 AUDIO
    TITLE "0:"
    INDEX 01 00:30:12
  TRACK 36 AUDIO
    TITLE "4:cjc046_3407"
    INDEX 01 00:30:22
  TRACK 37 AUDIO
    TITLE "0:"
    INDEX 01 00:31:31
  TRACK 38 AUDIO
    TITLE "2:cjc046_3408"
    INDEX 01 00:32:39
  TRACK 39 AUDIO
    TITLE "0:"
    INDEX 01 00:33:44
  TRACK 40 AUDIO
    TITLE "3:cjc046_3409"
    INDEX 01 00:33:68
  TRACK 41 AUDIO
    TITLE "0:"
    INDEX 01 00:35:43
  TRACK 42 AUDIO
    TITLE "4:cjc046_3410"
    INDEX 01 00:35:59
  TRACK 43 AUDIO
    TITLE "0:"
    INDEX 01 00:36:64
  TRACK 44 AUDIO
    TITLE "2:cjc046_3411"
    INDEX 01 00:38:00
  TRACK 45 AUDIO
    TITLE "0:"
    INDEX 01 00:38:73
  TRACK 46 AUDIO
    TITLE "3:cjc046_3412"
    INDEX 01 00:39:19
  TRACK 47 AUDIO
    TITLE "0:"
    INDEX 01 00:40:24
  TRACK 48 AUDIO
    TITLE "4:cjc046_3413"
    INDEX 01 00:40:46
  TRACK 49 AUDIO
    TITLE "0:"
    INDEX 01 00:41:44
  TRACK 50 AUDIO
    TITLE "2:cjc046_3414"
    INDEX 01 00:42:51
  TRACK 51 AUDIO
    TITLE "0:"
    INDEX 01 00:43:64
  TRACK 52 AUDIO
    TITLE "3:cjc046_3415"
    INDEX 01 00:44:09
  TRACK 53 AUDIO
    TITLE "0:"
    INDEX 01 00:45:35
  TRACK 54 AUDIO
    TITLE "4:cjc046_3416"
    INDEX 01 00:45:43
  TRACK 55 AUDIO
    TITLE "0:"
    INDEX 01 00:46:58
  TRACK 56 AUDIO
    TITLE "2:cjc046_3417"
    INDEX 01 00:47:68
  TRACK 57 AUDIO
    TITLE "0:"
    INDEX 01 00:49:25
  TRACK 58 AUDIO
    TITLE "3:cjc046_3418"
    INDEX 01 00:49:49
  TRACK 59 AUDIO
    TITLE "0:"
    INDEX 01 00:50:74
  TRACK 60 AUDIO
    TITLE "4:cjc046_3419"
    INDEX 01 00:51:15
  TRACK 61 AUDIO
    TITLE "0:"
    INDEX 01 00:52:49
  TRACK 62 AUDIO
    TITLE "2:cjc046_3420"
    INDEX 01 00:53:57
  TRACK 63 AUDIO
    TITLE "0:"
    INDEX 01 00:54:56
  TRACK 64 AUDIO
    TITLE "3:cjc046_3421"
    INDEX 01 00:55:01
  TRACK 65 AUDIO
    TITLE "0:"
    INDEX 01 00:57:11
  TRACK 66 AUDIO
    TITLE "4:cjc046_3422"
    INDEX 01 00:57:27
  TRACK 67 AUDIO
    TITLE "0:"
    INDEX 01 00:58:26
  TRACK 68 AUDIO
    TITLE "2:cjc046_3423"
    INDEX 01 00:59:34
  TRACK 69 AUDIO
    TITLE "0:"
    INDEX 01 01:00:49
  TRACK 70 AUDIO
    TITLE "3:cjc046_3424"
    INDEX 01 01:00:70
  TRACK 71 AUDIO
    TITLE "0:"
    INDEX 01 01:01:74
  TRACK 72 AUDIO
    TITLE "4:cjc046_3425"
    INDEX 01 01:02:18
  TRACK 73 AUDIO
    TITLE "0:"
    INDEX 01 01:03:35
  TRACK 74 AUDIO
    TITLE "2:cjc046_3426"
    INDEX 01 01:04:45
  TRACK 75 AUDIO
    TITLE "0:"
    INDEX 01 01:05:50
  TRACK 76 AUDIO
    TITLE "3:cjc046_3427"
    INDEX 01 01:05:71
  TRACK 77 AUDIO
    TITLE "0:"
    INDEX 01 01:07:10
  TRACK 78 AUDIO
    TITLE "4:cjc046_3428"
    INDEX 01 01:07:33
  TRACK 79 AUDIO
    TITLE "0:"
    INDEX 01 01:08:38
  TRACK 80 AUDIO
    TITLE "2:cjc046_3429"
    INDEX 01 01:09:46
  TRACK 81 AUDIO
    TITLE "0:"
    INDEX 01 01:10:61
  TRACK 82 AUDIO
    TITLE "3:cjc046_3430"
    INDEX 01 01:11:07
  TRACK 83 AUDIO
    TITLE "0:"
    INDEX 01 01:12:26
  TRACK 84 AUDIO
    TITLE "4:cjc046_3431"
    INDEX 01 01:12:38
  TRACK 85 AUDIO
    TITLE "0:"
    INDEX 01 01:13:55
  TRACK 86 AUDIO
    TITLE "2:cjc046_3432"
    INDEX 01 01:14:65
  TRACK 87 AUDIO
    TITLE "0:"
    INDEX 01 01:15:74
  TRACK 88 AUDIO
    TITLE "3:cjc046_3433"
    INDEX 01 01:16:18
  TRACK 89 AUDIO
    TITLE "0:"
    INDEX 01 01:17:45
  TRACK 90 AUDIO
    TITLE "4:cjc046_3434"
    INDEX 01 01:17:55
  TRACK 91 AUDIO
    TITLE "0:"
    INDEX 01 01:18:64
